<svg xmlns="http://www.w3.org/2000/svg" width="32" height="164" version="1.1" viewBox="0 0 32 164"><title>C</title><path fill="#000" stroke="#000" d="M16 0q-6.625 0-11.313 4.688t-4.688 11.313 4.688 11.313 11.313 4.688 11.313-4.688 4.688-11.313-4.688-11.313-11.313-4.688zM16 30q-5.813 0-9.906-4.094t-4.094-9.906 4.094-9.906 9.906-4.094 9.906 4.094 4.094 9.906-4.094 9.906-9.906 4.094zM8 24l10.563-4.938 5.438-11.063-10.813 5.188zM16 14q0.813 0 1.406 0.594t0.594 1.406-0.594 1.406-1.406 0.594-1.406-0.594-0.594-1.406 0.594-1.406 1.406-0.594z"/><path fill="red" stroke="red" d="M16 132q-6.625 0-11.313 4.688t-4.688 11.313 4.688 11.313 11.313 4.688 11.313-4.688 4.688-11.313-4.688-11.313-11.313-4.688zM16 162q-5.813 0-9.906-4.094t-4.094-9.906 4.094-9.906 9.906-4.094 9.906 4.094 4.094 9.906-4.094 9.906-9.906 4.094zM8 156l10.563-4.938 5.438-11.063-10.813 5.188zM16 146q0.813 0 1.406 0.594t0.594 1.406-0.594 1.406-1.406 0.594-1.406-0.594-0.594-1.406 0.594-1.406 1.406-0.594z"/></svg>